<svg viewBox="0 0 12 12" xmlns="http://www.w3.org/2000/svg" xmlns:xlink="http://www.w3.org/1999/xlink" width="12.000000" height="12.000000" fill="none" customFrame="#000000">
	<rect id="tag" width="12.000000" height="12.000000" x="0.000000" y="0.000000" />
	<path id="矢量 83" d="M5.96864 1.07619C5.84733 1.02592 5.71731 1.00003 5.586 1L2 1C1.82446 1 1.65202 1.04621 1.5 1.13397C1.34798 1.22174 1.22174 1.34798 1.13397 1.5C1.04621 1.65202 1 1.82446 1 2L1 5.586C1.00003 5.71731 1.02592 5.84733 1.07619 5.96864C1.12646 6.08994 1.20013 6.20016 1.293 6.293L5.645 10.645C5.79542 10.7945 5.9824 10.9019 6.18729 10.9566C6.39218 11.0112 6.60782 11.0112 6.81271 10.9566C7.0176 10.9019 7.20458 10.7945 7.355 10.645L10.645 7.355C10.7945 7.20458 10.9019 7.0176 10.9566 6.81271C11.0112 6.60782 11.0112 6.39218 10.9566 6.18729C10.9019 5.9824 10.7945 5.79542 10.645 5.645L6.293 1.293C6.20016 1.20013 6.08994 1.12646 5.96864 1.07619Z" fill-rule="nonzero" stroke="rgb(107,114,128)" stroke-linecap="round" stroke-linejoin="round" stroke-width="1.000000" />
	<circle id="椭圆 16" cx="3.75" cy="3.75" r="0.25" fill="rgb(107,114,128)" />
	<circle id="椭圆 16" cx="3.75" cy="3.75" r="0.25" stroke="rgb(107,114,128)" stroke-linecap="round" stroke-linejoin="round" stroke-width="1.000000" />
</svg>
